# xmcd
#
# Track frame offsets:
#	150
#	13400
#	28110
#	41560
#	51660
#	66032
#	78600
#	102010
#	116370
#	135827
#	150435
#	164035
#	177210
#	188580
#	201735
#	213735
#	227465
#
# Disc length: 3311 seconds
#
# Revision: 1
# Processed by: cddbd v1.4PL0 Copyright (c) Steve Scherf et al.
# Submitted via: audiograbber 1.81.03
#
DISCID=ec0ced11
DTITLE=Waylon Jennings - Legends - Disk Two
DYEAR=2002
DGENRE=Country
TTITLE0=Are You Sure Hank Done It This Way
TTITLE1=Games People Play
TTITLE2=Good Hearted Woman
TTITLE3=Ruby, Don't Take Your Love To Town
TTITLE4=No Regrets
TTITLE5=I'm A Ramblin' Man
TTITLE6=MacArthur Park
TTITLE7=Endangered Species
TTITLE8=Waymore's Blues Part II
TTITLE9=Folsom Prison Blues
TTITLE10=Nobody Knows
TTITLE11=Love Of The Common People
TTITLE12=She's Looking Good
TTITLE13=It Doesn't Matter Anymore
TTITLE14=The Door Is Always Open
TTITLE15=It'll Be Her
TTITLE16=Me And Bobby McGee
EXTD=
EXTT0=
EXTT1=
EXTT2=
EXTT3=
EXTT4=
EXTT5=
EXTT6=
EXTT7=
EXTT8=
EXTT9=
EXTT10=
EXTT11=
EXTT12=
EXTT13=
EXTT14=
EXTT15=
EXTT16=
PLAYORDER=
